<svg width="39" height="39" fill="none" xmlns="http://www.w3.org/2000/svg"><g clip-path="url(#clip0)"><path d="M19.471 8.961c-2.835 0-3.19.013-4.304.063-1.112.051-1.87.227-2.534.485a5.11 5.11 0 0 0-1.85 1.204 5.124 5.124 0 0 0-1.204 1.85c-.259.663-.435 1.422-.485 2.533-.05 1.113-.063 1.47-.063 4.304 0 2.835.013 3.19.063 4.303.051 1.112.227 1.87.485 2.534a5.115 5.115 0 0 0 1.204 1.85c.58.58 1.163.937 1.849 1.204.664.258 1.423.434 2.534.485 1.113.05 1.469.063 4.304.063s3.19-.012 4.303-.063c1.111-.051 1.87-.227 2.535-.485a5.106 5.106 0 0 0 1.848-1.205c.58-.58.937-1.162 1.205-1.849.256-.664.433-1.423.485-2.533.05-1.114.063-1.469.063-4.304s-.013-3.19-.063-4.304c-.052-1.111-.229-1.87-.485-2.534a5.122 5.122 0 0 0-1.205-1.849 5.1 5.1 0 0 0-1.849-1.204c-.665-.258-1.424-.434-2.535-.485-1.114-.05-1.468-.063-4.304-.063h.003zm-.936 1.882h.936c2.787 0 3.117.01 4.218.06 1.018.046 1.57.216 1.938.36.488.188.835.415 1.2.78.365.365.591.713.781 1.2.143.368.313.92.36 1.938.05 1.1.06 1.431.06 4.217 0 2.786-.01 3.116-.06 4.217-.047 1.017-.217 1.57-.36 1.937-.19.488-.416.834-.781 1.2a3.228 3.228 0 0 1-1.2.78c-.367.144-.92.313-1.938.36-1.1.05-1.43.06-4.218.06-2.787 0-3.118-.01-4.218-.06-1.018-.047-1.57-.217-1.938-.36a3.233 3.233 0 0 1-1.201-.78 3.235 3.235 0 0 1-.781-1.2c-.143-.368-.313-.92-.36-1.938-.05-1.1-.06-1.431-.06-4.219 0-2.787.01-3.116.06-4.217.047-1.017.217-1.57.36-1.938.189-.487.416-.835.781-1.2a3.238 3.238 0 0 1 1.2-.781c.368-.144.921-.314 1.939-.36.963-.044 1.336-.057 3.282-.059v.003zm6.508 1.733a1.253 1.253 0 1 0 0 2.506 1.253 1.253 0 0 0 0-2.507zm-5.572 1.463a5.361 5.361 0 1 0 0 10.722 5.361 5.361 0 0 0 0-10.721zm0 1.882a3.48 3.48 0 1 1 0 6.959 3.48 3.48 0 0 1 0-6.96z" fill="#FF4000"/></g><defs><clipPath id="clip0"><path fill="#fff" transform="translate(9.031 8.961)" d="M0 0H20.878V20.878H0z"/></clipPath></defs></svg>