<svg width="1370" height="18" fill="none" xmlns="http://www.w3.org/2000/svg"><path d="M1 9C19.24-1.667 28.36-1.667 46.6 9c18.24 10.667 27.36 10.667 45.6 0 18.24-10.667 27.36-10.667 45.6 0 18.24 10.667 27.36 10.667 45.6 0C201.64-1.667 210.76-1.667 229 9c18.24 10.667 27.36 10.667 45.6 0 18.24-10.667 27.36-10.667 45.6 0 18.24 10.667 27.36 10.667 45.6 0 18.24-10.667 27.36-10.667 45.6 0 18.24 10.667 27.36 10.667 45.6 0 18.24-10.667 27.36-10.667 45.6 0 18.24 10.667 27.36 10.667 45.6 0 18.24-10.667 27.36-10.667 45.6 0 18.24 10.667 27.36 10.667 45.6 0C657.64-1.667 666.76-1.667 685 9c18.24 10.667 27.36 10.667 45.6 0 18.24-10.667 27.36-10.667 45.6 0 18.24 10.667 27.36 10.667 45.6 0 18.24-10.667 27.36-10.667 45.6 0 18.24 10.667 27.36 10.667 45.6 0 18.24-10.667 27.36-10.667 45.6 0 18.24 10.667 27.36 10.667 45.6 0 18.24-10.667 27.36-10.667 45.6 0 18.24 10.667 27.36 10.667 45.6 0 18.24-10.667 27.36-10.667 45.6 0 18.24 10.667 27.36 10.667 45.6 0 18.24-10.667 27.36-10.667 45.6 0 18.24 10.667 27.36 10.667 45.6 0 18.24-10.667 27.36-10.667 45.6 0 18.24 10.667 27.36 10.667 45.6 0" stroke="#FF1A00" stroke-width="2"/></svg>