<svg xmlns="http://www.w3.org/2000/svg" viewBox="0 0 1148.7 1066.244"><path d="M176.629 346.764H382.26v446.314h184.177V576.989h266.539V447.744H566.437V347.677h309.342V209.212h-699.15z"/><path d="M733.832 273.11H890.02v11.224H733.832z"/><path d="M787.232 519.092H122.999C55.175 519.092 0 463.917 0 396.098S55.175 273.11 122.999 273.11h692.85v11.224h-692.85c-61.631 0-111.776 50.139-111.776 111.765 0 61.631 50.145 111.77 111.776 111.77h664.232v11.223zM253.036 1066.244c-78.521 0-142.4-63.878-142.4-142.4s63.878-142.4 142.4-142.4h358.871v11.224H253.036c-72.329 0-131.176 58.847-131.176 131.176s58.847 131.176 131.176 131.176v11.224z"/><path d="M917.695 792.668H439.836v-11.224h477.859c72.329 0 131.176-58.847 131.176-131.176s-58.847-131.176-131.176-131.176H171.226v-11.224h746.469c78.521 0 142.4 63.878 142.4 142.4s-63.878 142.4-142.4 142.4zM250.986 1066.244c-78.39 0-142.159-63.774-142.159-142.164s63.769-142.17 142.159-142.17v11.224c-72.197 0-130.935 58.743-130.935 130.946s58.738 130.94 130.935 130.94c72.208 0 130.946-58.738 130.946-130.94h11.224c-.001 78.39-63.78 142.164-142.17 142.164zM1006.531 284.333H867.573V273.11h138.958c72.208 0 130.946-58.743 130.946-130.946s-58.738-130.94-130.946-130.94c-72.197 0-130.935 58.738-130.935 130.94v95.401h-11.224v-95.401C864.372 63.774 928.141 0 1006.531 0S1148.7 63.774 1148.7 142.164s-63.779 142.169-142.169 142.169z"/><path d="M381.932 259.546h11.224v666.342h-11.224z"/></svg>