<svg xmlns="http://www.w3.org/2000/svg" id="Layer_1" viewBox="0 0 713.04 640.6"><path fill="#fff" d="M682.18 279.76L554.46 58.55C540.02 33.54 513.12 18 484.24 18H228.81c-28.88 0-55.79 15.54-70.22 40.55L30.86 279.76c-14.44 25-14.44 56.08 0 81.08l127.72 221.22c14.44 25.01 41.35 40.54 70.22 40.54h255.44c28.88 0 55.78-15.53 70.22-40.54l127.72-221.22c14.44-25 14.44-56.07 0-81.08zM373.85 561.17l-60.66-22.08c2.84-.2 5.69-.5 8.53-1l141.97-25.03c2.9-.51 5.71-1.29 8.5-2.09l-49.59 41.61c-13.49 11.33-32.17 14.64-48.75 8.59zM339.19 79.43l60.83 22.14c-2.9.2-5.81.43-8.7.94l-141.97 25.03c-2.9.51-5.71 1.29-8.5 2.09l49.59-41.61c13.49-11.31 32.18-14.61 48.75-8.59zm119.03 402.53l-141.97 25.03c-18.24 3.19-36.97-3.6-48.87-17.79l-92.67-110.44c-11.9-14.19-15.37-33.81-9.03-51.22l49.31-135.47c6.33-17.4 21.6-30.21 39.84-33.43l141.97-25.03c18.24-3.22 36.97 3.6 48.87 17.78l92.67 110.44c11.9 14.19 15.36 33.81 9.03 51.22l-49.31 135.47c-6.34 17.41-21.6 30.22-39.84 33.44zm11.64-350.85c-1.89-2.25-3.97-4.3-6.07-6.32l60.83 22.14c16.57 6.03 28.76 20.57 31.82 37.93l11.24 63.76c-1.62-2.41-3.28-4.81-5.17-7.07l-92.65-110.44zm-284.55 50.17L136 316.75c-1 2.77-1.74 5.58-2.44 8.41l-11.24-63.75c-3.06-17.36 3.42-35.19 16.93-46.52l49.59-41.61c-1.27 2.61-2.52 5.24-3.53 8zm-34.79 217.78l92.67 110.44c1.85 2.2 3.82 4.27 5.87 6.25l-60.64-22.07c-16.57-6.03-28.76-20.57-31.82-37.93l-11.24-63.76c1.62 2.42 3.27 4.82 5.16 7.07zm377.21 60.26l49.31-135.47c1-2.76 1.74-5.58 2.44-8.41l11.24 63.75c3.06 17.36-3.42 35.19-16.94 46.52l-49.59 41.61c1.28-2.6 2.53-5.23 3.54-8zm-.61-384.99l33.36 57.78c-7.32-6.31-15.72-11.45-25.05-14.85l-185.44-67.5c-.21-.08-.43-.11-.64-.19h134.9c17.62.01 34.05 9.49 42.87 24.76zm-341.19 0c8.81-15.27 25.24-24.75 42.88-24.75h66.7c-9.12 3.18-17.77 7.89-25.37 14.27L118.96 190.7c-.18.15-.32.32-.49.47l67.46-116.84zM58.21 295.55l33.35-57.77c-1.8 9.49-2.05 19.33-.33 29.11l34.27 194.35c.04.22.12.43.16.65L58.21 345.06c-8.82-15.27-8.82-34.24 0-49.51zm127.72 270.73l-33.36-57.78c7.32 6.31 15.72 11.45 25.05 14.85l185.44 67.49c.2.07.4.12.6.19H228.81c-17.64-.01-34.07-9.49-42.88-24.75zm341.19 0c-8.81 15.27-25.25 24.75-42.88 24.75h-66.36c9.01-3.18 17.51-7.95 25.03-14.26l151.17-126.85c.18-.15.32-.32.49-.47l-67.45 116.83zm127.72-221.22l-33.35 57.77c1.81-9.49 2.06-19.33.33-29.11l-34.27-194.35c-.04-.22-.12-.43-.16-.65l67.45 116.83c8.81 15.27 8.81 34.24 0 49.51z"/></svg>