<svg width="23" height="23" xmlns="http://www.w3.org/2000/svg"><g transform="translate(.717 .295)" fill-rule="nonzero" fill="none"><path d="M21.585 10.976c0-5.86-4.75-10.61-10.61-10.61-5.86 0-10.61 4.75-10.61 10.61h21.22z" fill="#262729"/><path d="M21.951 11.341H0v-.365C0 4.924 4.924 0 10.976 0 17.028 0 21.95 4.924 21.95 10.976v.365zM.738 10.61h20.475C21.02 5.13 16.502.732 10.976.732 5.449.732.93 5.13.738 10.61z" fill="#262729"/><path d="M21.199 11.52H.753c.373 5.32 4.807 9.521 10.223 9.521 5.415 0 9.85-4.2 10.223-9.521z" stroke="#262729" stroke-width="1.455"/><circle fill="#F1FDFF" cx="10.976" cy="10.976" r="4.024"/><path d="M10.976 15.366c-2.421 0-4.39-1.97-4.39-4.39 0-2.421 1.969-4.39 4.39-4.39 2.42 0 4.39 1.969 4.39 4.39 0 2.42-1.97 4.39-4.39 4.39zm0-8.049a3.663 3.663 0 0 0-3.659 3.659 3.663 3.663 0 0 0 3.659 3.658 3.663 3.663 0 0 0 3.658-3.658 3.663 3.663 0 0 0-3.658-3.659z" stroke="#262729" stroke-width=".727" fill="#262729"/></g></svg>