<svg width="24" height="24" xmlns="http://www.w3.org/2000/svg"><path d="M16.945.568a6.238 6.238 0 0 1 6.231 6.23v10.118a6.238 6.238 0 0 1-6.231 6.231H6.828a6.238 6.238 0 0 1-6.232-6.23V6.798A6.238 6.238 0 0 1 6.828.568h10.117zm4.228 16.348V6.8a4.233 4.233 0 0 0-4.228-4.228H6.828A4.233 4.233 0 0 0 2.6 6.799v10.117a4.233 4.233 0 0 0 4.228 4.228h10.117a4.233 4.233 0 0 0 4.228-4.228zM11.886 6.04a5.825 5.825 0 0 1 5.819 5.818 5.825 5.825 0 0 1-5.819 5.818 5.825 5.825 0 0 1-5.818-5.818 5.825 5.825 0 0 1 5.818-5.818zm0 9.632a3.82 3.82 0 0 0 3.815-3.814 3.82 3.82 0 0 0-3.815-3.815 3.82 3.82 0 0 0-3.814 3.815 3.82 3.82 0 0 0 3.814 3.814zM17.95 4.341c.387 0 .766.156 1.039.43.274.272.43.652.43 1.039 0 .386-.156.765-.43 1.04-.274.272-.652.43-1.04.43a1.48 1.48 0 0 1-1.037-.43 1.481 1.481 0 0 1-.432-1.04 1.475 1.475 0 0 1 1.47-1.47z" fill="#262729" fill-rule="nonzero"/></svg>