<svg width="51" height="52" fill="none" xmlns="http://www.w3.org/2000/svg"><path d="M3.301 46.573l-.916 2.222 2.222-.916L17.1 42.727l.184-.077.141-.14 30.906-30.906.707-.708-.707-.707-7.341-7.34-.707-.708-.707.707L8.67 33.754l-.141.14-.076.186L3.3 46.573z" fill="#FFF0F2" stroke="#FF4000" stroke-width="2"/><path d="M16.844 42.731c-.519-3.339-2.632-7.551-8.322-8.525M9.849 45.65c-.848-1.79-2.27-3.487-4.535-4.535m10.14-2.366l26.341-26.341M12.431 35.727L38.773 9.385m5.182 5.182l-7.342-7.34" stroke="#FF4000" stroke-width="2"/></svg>