<svg width="23" height="23" xmlns="http://www.w3.org/2000/svg"><path d="M.28 7.375h4.873v14.633H.281V7.375zm20.865 1.337c1.024 1.117 1.536 2.753 1.536 4.91v8.386h-4.858v-7.826c0-1.034-.2-1.843-.598-2.429-.399-.586-1.022-.879-1.868-.879-.62 0-1.14.17-1.558.51-.419.34-.73.76-.938 1.262-.108.296-.162.695-.162 1.197v8.165H7.84c.02-3.927.03-7.112.03-9.553 0-2.442-.006-3.898-.016-4.371l-.014-.709h4.858v2.08c.187-.295.38-.556.576-.78a6.3 6.3 0 0 1 .834-.768c.35-.276.778-.49 1.285-.642a5.852 5.852 0 0 1 1.69-.23c1.684 0 3.038.56 4.061 1.677zM2.746.332c.818 0 1.472.238 1.964.716.492.477.744 1.08.753 1.809.01.718-.238 1.319-.745 1.8-.507.483-1.174.724-2.001.724h-.03c-.807 0-1.457-.24-1.949-.723C.246 4.176 0 3.575 0 2.857c0-.73.253-1.332.76-1.81C1.268.57 1.93.333 2.746.333z" fill="#262729" fill-rule="nonzero"/></svg>