<svg viewBox="0 0 502 579.7" xmlns="http://www.w3.org/2000/svg"><path d="m313.8 36.2-62.7 36.2-62.8-36.2 62.8-36.2zm-251 144.9 94.1-54.3 188.2 108.7v95.1l62.7-36.2v-95.1l-94.1-54.3-62.7-36.2-94.1-54.5-156.9 90.6v181.1l82.3 47.6v-72.5l-19.6-11.3v-108.7zm-62.8 253.6 62.7 36.2v-72.4l-62.7-36.2zm502-72.5-62.7 36.2v72.4l62.7-36.2zm-345.1-126.8 82.3-47.5-62.7-36.2-82.4 47.6v289.8l156.9 90.6 156.8-90.6v-95.1l-62.7 36.2v22.6l-94.1 54.3-94.1-54.3zm188.2-181.1-82.4 47.6 62.7 36.2 19.6-11.3 94.1 54.3v108.7l-188.1 108.7-82.4-47.6v72.4l82.4 47.6 251-144.9v-181.1z"/></svg>