<svg xmlns="http://www.w3.org/2000/svg" viewBox="0 0 62.2 62.2"><g><path d="M36.3 32.8h-8.8c-.3 0-.6.3-.6.6V44c0 .1 0 .1-.1.1h-3.9c-.1 0-.1 0-.1-.1V17.1c0-.1 0-.1.1-.1h3.9c.1 0 .1 0 .1.1v10.6c0 .3.3.6.6.6h8.8c3.6 0 6.5-2.9 6.5-6.5s-2.9-6.5-6.5-6.5h-7.5c-.1 0-.1 0-.1-.1V9.4c0-.3-.3-.6-.6-.6h-.6c-.3 0-.6.3-.6.6v5.8c0 .1 0 .1-.1.1h-5.2c-.3 0-.6.3-.6.6v29.4c0 .3.3.6.6.6h5.2c.1 0 .1 0 .1.1v5.9c0 .3.3.6.6.6h.6c.3 0 .6-.3.6-.6V46c0-.1 0-.1.1-.1h4.8c.2 0 .4.1.5.3l4.1 5.6c.2.3.5.7 1 .7h.6c.2 0 .4-.1.4-.2.1-.2.1-.4-.1-.6l-4-5.7v-.1c.1 0 .9 0 1.4-.1 3-.4 5.3-3.1 5.3-6.4.1-3.7-2.9-6.6-6.5-6.6zm4.8 6.5c0 2.6-2.2 4.8-4.8 4.8h-7.5c-.1 0-.1 0-.1-.1v-9.4h7.6c2.7-.1 4.8 2.1 4.8 4.7zm-4.8-12.8h-7.5c-.1 0-.1 0-.1-.1V17c0-.1.1-.1.1-.1h7.5c2.6 0 4.8 2.2 4.8 4.8 0 2.7-2.1 4.8-4.8 4.8z"/><path d="M31.1 0C14 0 0 13.9 0 31.1c0 17.1 13.9 31.1 31.1 31.1 17.1 0 31.1-13.9 31.1-31.1C62.1 13.9 48.2 0 31.1 0zm0 60.4C14.9 60.4 1.7 47.2 1.7 31S14.9 1.7 31 1.7c16.2 0 29.3 13.2 29.3 29.3.1 16.2-13.1 29.4-29.2 29.4z"/></g></svg>