<svg xmlns="http://www.w3.org/2000/svg" viewBox="0 0 65.878 65.878"><path d="M63.545 45.017c1.51-3.706 2.333-7.823 2.333-12.078C65.878 14.823 51.056 0 32.939 0h-1.235C14.136.686 0 15.234 0 32.939c0 18.116 14.823 32.939 32.939 32.939 12.215 0 22.92-6.725 28.547-16.607h.137c.824-1.372 1.51-2.745 1.922-4.254zm-.824-16.607a22.43 22.43 0 0 0-7.137-8.921c-.549-3.98-2.196-7.549-4.529-10.568 6.177 4.666 10.431 11.529 11.666 19.489zm-9.744-5.49c0 5.353-2.196 10.293-5.627 13.999-.137-3.431-1.098-7-3.019-10.293a21.48 21.48 0 0 0-7.96-8.098c5.215-1.51 10.705-.823 15.509 1.921.412.274.686.412 1.098.686l-.001 1.785zM7 48.173c-2.745-4.666-3.431-10.019-2.059-15.234.961-3.294 2.608-6.313 4.941-8.784.412 7 3.843 13.176 9.195 17.156.961 6.725 4.941 12.627 10.705 16.195a18.113 18.113 0 0 1-5.353.823C17.293 58.192 10.568 54.349 7 48.173zM31.841 2.882h1.098c9.195 0 16.881 6.176 19.214 14.548-6.039-3.019-13.176-3.294-19.352-.686-2.608-1.098-5.49-1.647-8.372-1.647-3.843 0-7.549.961-10.98 2.882 2.06-8.372 9.471-14.685 18.392-15.097zM44.468 39.39c-3.294 2.333-7.274 3.706-11.529 3.706-11.117 0-20.038-9.058-20.038-20.038v-1.235c.549-.412.961-.686 1.51-.961a19.63 19.63 0 0 1 10.019-2.745c7.137 0 13.862 3.843 17.43 10.019 2.059 3.431 2.882 7.411 2.608 11.254zM33.351 55.996l-1.647-.823c-4.529-2.608-7.823-6.862-9.333-11.94 3.157 1.647 6.725 2.47 10.431 2.47 3.98 0 7.686-.961 10.98-2.745-1.235 5.078-4.529 9.607-9.333 12.489-.275.275-.686.412-1.098.549zM14.685 9.058c-2.47 3.157-3.98 7-4.529 11.117-3.294 2.608-5.627 5.902-7.137 9.744.824-8.509 5.216-15.92 11.666-20.861zm18.254 53.938c-3.98 0-7.686-.823-11.254-2.196.961.137 1.784.137 2.745.137 3.98 0 7.96-1.098 11.391-3.019 6.451-3.706 10.431-10.156 11.254-17.156 5.078-4.117 8.509-10.293 8.647-17.43 5.49 5.353 7.411 13.313 5.078 20.587-4.392 11.254-15.234 19.077-27.861 19.077z"/></svg>