<svg xmlns="http://www.w3.org/2000/svg" viewBox="0 0 298.6 42"><path d="M298.6 25.4c0-10.2-7.1-12.9-13.4-12.9-8.8 0-15.6 4.5-15.6 14.9 0 10.2 7.4 14.6 15.1 14.6 7.1 0 11.9-3.4 13.5-10.8l-.1-.1c-1.8 3-5.3 4.4-8.4 4.4-4.2 0-7.9-2.2-8.1-8.9h17v-1.2M288 22.9c0 .8 0 1.7-.1 2.6h-6.5c0-9.8 1.2-11.8 3.4-11.8 1.7 0 3.2 1.1 3.2 9.2m-38.3-5.8c0-2.4 1.9-3.4 4.3-3.4.3 0 .6 0 .9.1s.5.2.9.8l4.9 8.5h.1l3.8-8.9c-4.2-1.1-8.2-1.5-10.9-1.5-8.6 0-13 3.9-13 9.5 0 4.3 2.5 7 5.7 8.5l4 1.9c4.3 2 5.6 2.9 5.6 4.7 0 2.3-2.1 3.6-5.1 3.6-.3 0-.7 0-1.1-.1s-.7-.2-.9-.6l-5.4-9.4h-.1l-3.6 9.3c3.6 1.3 7.9 1.8 11.4 1.8 8.7 0 13.9-3.6 13.9-9.9 0-4.5-2.6-6.5-6.3-8.1l-3.5-1.5c-3.7-1.7-5.6-3-5.6-5.3m-30.1 24.4h16.9v-.1l-2.2-2.8c-.4-.5-.5-.7-.5-1.4V13h-14.2v.1l2.2 2.9c.4.5.5.7.5 1.4v19.8c0 .7-.1.9-.5 1.4l-2.2 2.8v.1zM233.3 5c0-3.1-2.4-5-5.3-5-2.8 0-5.3 1.8-5.3 5 0 3 2.5 4.7 5.3 4.7 2.9 0 5.3-1.7 5.3-4.7m-35.5 36.5h16.9v-.1l-2.2-2.8c-.4-.5-.5-.7-.5-1.4.1-4.5.2-8.3.2-12.2 0-7.9-3.3-12.4-9.5-12.4-5 0-8 2.7-9.4 6.2V13h-14.2v.1l2.2 2.9c.4.5.5.7.5 1.4v19.8c0 .7-.1.9-.5 1.4l-2.2 2.8v.1H196v-.1l-2.2-2.8c-.4-.5-.5-.7-.5-1.4V19.6c.9-1 1.8-1.6 3.3-1.6 3.6 0 4.1 3.7 4.1 7.9 0 3-.2 10.1-.2 11.3 0 .7-.1.9-.5 1.4l-2.2 2.8v.1zm-23.6-2.7c.4-.7.6-1.6.5-2.3h-.1c-.3.5-.8.7-1.4.7-.9 0-1.4-.9-1.3-3.1l.5-8.6c0-.2.1-.8.1-1.5 0-4.2-1.1-6.9-3-8.7-2.2-2.1-5.7-2.8-9.8-2.8-3.9 0-8.4.9-12.6 2.3l4.1 8.6h.1l5.3-9.2c.3-.5.4-.6 1.3-.6 2.3 0 3.1 2.3 3.1 6v.3l-.1 6.2c-1.4-1-3.4-1.4-6.2-1.4-4.7 0-9.8 3-9.8 8.8 0 5.5 3.7 8.3 7.9 8.3 3.8 0 6.7-2.2 7.9-5.3.3 3.3 3.5 5.3 7.1 5.3 3.1.2 5.2-1 6.4-3m-13.3-11.9l-.2 9.1c-.5.6-1.3 1.2-2.2 1.2-1.7 0-2.9-1.5-2.9-4.8 0-3.4 1.4-5.7 3.7-5.7.6 0 1.1.1 1.6.2m-35.8 14.6H142v-.1l-2.2-2.8c-.4-.5-.5-.7-.5-1.4.1-4.5.2-8.3.2-12.2 0-7.9-3.3-12.4-9.5-12.4-5 0-8.5 3.3-9.9 6.6-1.3-4.2-4.3-6.6-8.7-6.6-5 0-8 2.7-9.4 6.2V13H87.8v.1L90 16c.4.5.5.7.5 1.4v19.8c0 .7-.1.9-.5 1.4l-2.2 2.8v.1h16.9v-.1l-2.2-2.8c-.4-.5-.5-.7-.5-1.4V19.6c.9-1 1.8-1.6 3.3-1.6 3.6 0 4.1 3.7 4.1 7.9 0 3-.2 10.1-.2 11.3 0 .7-.1.9-.5 1.4l-2.2 2.8v.1h16.9v-.1l-2.2-2.8c-.4-.5-.5-.7-.5-1.4.1-4.5.2-8.3.2-12.2 0-1.9-.2-3.7-.6-5.2.9-.9 2.2-1.7 3.6-1.7 3.6 0 4.1 3.7 4.1 7.9 0 3-.2 10.1-.2 11.3 0 .7-.1.9-.5 1.4l-2.2 2.8zm-56.9 0h14.3v-.1l-2.2-2.8c-.4-.5-.5-.7-.5-1.4V13H65.6v.1l2.2 2.9c.4.5.5.7.5 1.4v17.5c-.9.9-1.8 1.6-3.3 1.6-3.1 0-3.4-3.5-3.4-7.6V13H47.5v.1l2.2 2.8c.4.5.5.7.5 1.4-.1 4.6-.2 8.5-.2 12.5 0 7.7 3.1 12.1 9.3 12.1 4.2 0 7.5-2.7 9-6.2v5.8h-.1zm-44.4 0h20v-.1l-3.1-4.1c-.4-.5-.5-.7-.5-1.5V7c0-.8.1-1 .5-1.5l3.1-4.1v-.1h-20v.1l3.1 4.1c.4.5.5.7.5 1.5v13.3h-11V7c0-.8.1-1 .5-1.5L20 1.4v-.1H0v.1l3.1 4.1c.4.5.5.7.5 1.5v28.8c0 .8-.1 1-.5 1.5L0 41.4v.1h20v-.1l-3.1-4.1c-.4-.5-.5-.7-.5-1.5V21.5h11v14.3c0 .8-.1 1-.5 1.5l-3.1 4.1v.1z"/></svg>