<svg width="22" height="22" xmlns="http://www.w3.org/2000/svg"><path d="M20.363 5.59a10.587 10.587 0 0 0-3.869-3.87C14.865.77 13.087.296 11.158.296 9.228.295 7.45.77 5.82 1.72A10.584 10.584 0 0 0 1.95 5.59C1.002 7.219.526 8.998.526 10.927c0 1.928.476 3.707 1.426 5.336a10.587 10.587 0 0 0 3.87 3.87c1.629.95 3.407 1.425 5.336 1.425 1.93 0 3.708-.475 5.337-1.426a10.584 10.584 0 0 0 3.87-3.869c.95-1.629 1.425-3.408 1.425-5.336 0-1.93-.475-3.708-1.426-5.337zm-9.206-3.745c2.289 0 4.287.757 5.994 2.27l-.173.243c-.069.097-.242.283-.519.56-.276.277-.579.54-.906.79-.328.249-.773.532-1.336.85a12.85 12.85 0 0 1-1.8.839c-1.061-1.957-2.196-3.72-3.405-5.289a9.158 9.158 0 0 1 2.145-.263zM4.042 5.292a8.959 8.959 0 0 1 3.24-2.575c1.144 1.523 2.27 3.267 3.377 5.233A32.842 32.842 0 0 1 2.27 9.058a8.975 8.975 0 0 1 1.772-3.766zm-1.357 8.909a8.908 8.908 0 0 1-.609-3.274c0-.13.005-.227.014-.291 3.34 0 6.447-.43 9.317-1.288.295.573.54 1.085.733 1.537a1.12 1.12 0 0 1-.18.062 8.64 8.64 0 0 1-.18.049l-.512.18c-.35.129-.81.35-1.378.664-.567.314-1.17.688-1.806 1.122-.637.434-1.294 1.008-1.973 1.724a11.603 11.603 0 0 0-1.71 2.304 9.092 9.092 0 0 1-1.716-2.79zm8.472 5.807c-2.16 0-4.088-.692-5.786-2.076l.207.152c.323-.711.799-1.394 1.426-2.05.628-.654 1.232-1.183 1.814-1.584a17.87 17.87 0 0 1 1.896-1.136c.683-.355 1.15-.581 1.399-.678.249-.097.447-.173.595-.228l.027-.014h.028c.904 2.372 1.55 4.67 1.938 6.894a9.077 9.077 0 0 1-3.544.72zm7.642-4.174a9.072 9.072 0 0 1-2.56 2.624 39.004 39.004 0 0 0-1.773-6.493c1.837-.286 3.724-.152 5.662.401a8.959 8.959 0 0 1-1.329 3.468zm1.301-5.032c-.092-.018-.208-.04-.346-.062l-.505-.083c-.199-.033-.42-.062-.665-.09a22.82 22.82 0 0 0-2.624-.152c-.322 0-.662.009-1.017.027-.355.018-.699.051-1.03.097a1.64 1.64 0 0 1-.105-.228 4.787 4.787 0 0 1-.09-.243 91.89 91.89 0 0 0-.609-1.315 14.206 14.206 0 0 0 1.821-.893 14.149 14.149 0 0 0 1.384-.9c.346-.263.674-.542.983-.837.31-.295.51-.5.602-.616.093-.116.18-.229.263-.34l.014-.013c1.348 1.643 2.035 3.534 2.063 5.676l-.139-.028z" fill="#262729" fill-rule="nonzero"/></svg>