<svg width="87" height="87" fill="none" xmlns="http://www.w3.org/2000/svg"><path fill-rule="evenodd" clip-rule="evenodd" d="M43.067 35.333c-2.8 0-5.066-4.8-5.066-10.666C38 18.8 40.267 14 43.067 14s5.067 4.8 5.067 10.667c0 5.866-2.267 10.666-5.067 10.666zm-17 7.2c-2.8 0-5.067-4.8-5.067-10.666C21 26 23.267 21.2 26.067 21.2c2.8 0 5.066 4.8 5.066 10.667 0 5.866-2.266 10.666-5.066 10.666zM55 31.867c0 5.866 2.266 10.666 5.066 10.666s5.067-4.8 5.067-10.666c0-5.867-2.267-10.667-5.067-10.667-2.8 0-5.066 4.8-5.066 10.667z" fill="#FF4000"/><path d="M70 48c0 14.33-11.82 26-26.5 26S17 62.33 17 48" stroke="#FF4000" stroke-width="2" stroke-miterlimit="10"/><circle cx="43.5" cy="43.5" r="42.5" stroke="#FF4000" stroke-width="2" stroke-miterlimit="10"/></svg>